<!DOCTYPE svg PUBLIC "-//W3C//DTD SVG 1.1//EN" "http://www.w3.org/Graphics/SVG/1.1/DTD/svg11.dtd">
<!-- Uploaded to: SVG Repo, www.svgrepo.com, Transformed by: SVG Repo Mixer Tools -->
<svg fill="#ffd27d" width="800px" height="800px" viewBox="0 0 64 64" xmlns="http://www.w3.org/2000/svg" stroke="#ffd27d">
<g id="SVGRepo_bgCarrier" stroke-width="0"/>
<g id="SVGRepo_tracerCarrier" stroke-linecap="round" stroke-linejoin="round"/>
<g id="SVGRepo_iconCarrier"> <g data-name="Layer 28" id="Layer_28"> <path d="M32,3A29,29,0,1,0,61,32,29,29,0,0,0,32,3Zm0,56A27,27,0,1,1,59,32,27,27,0,0,1,32,59ZM43,37a1,1,0,0,1-1,1H22a1,1,0,0,1,0-2H42A1,1,0,0,1,43,37Zm5.71-19.29L44.41,22l4.3,4.29a1,1,0,0,1,0,1.42,1,1,0,0,1-1.42,0L43,23.41l-4.29,4.3a1,1,0,0,1-1.42,0,1,1,0,0,1,0-1.42L41.59,22l-4.3-4.29a1,1,0,0,1,1.42-1.42L43,20.59l4.29-4.3a1,1,0,0,1,1.42,1.42ZM23,23.41l-4.29,4.3a1,1,0,0,1-1.42,0,1,1,0,0,1,0-1.42L21.59,22l-4.3-4.29a1,1,0,0,1,1.42-1.42L23,20.59l4.29-4.3a1,1,0,0,1,1.42,1.42L24.41,22l4.3,4.29a1,1,0,0,1,0,1.42,1,1,0,0,1-1.42,0Z"/> </g> </g>
</svg>