<!DOCTYPE svg PUBLIC "-//W3C//DTD SVG 1.1//EN" "http://www.w3.org/Graphics/SVG/1.1/DTD/svg11.dtd">
<!-- Uploaded to: SVG Repo, www.svgrepo.com, Transformed by: SVG Repo Mixer Tools -->
<svg width="800px" height="800px" viewBox="0 0 48 48" xmlns="http://www.w3.org/2000/svg" fill="#ffd27d" stroke="#ffd27d">
<g id="SVGRepo_bgCarrier" stroke-width="0"/>
<g id="SVGRepo_tracerCarrier" stroke-linecap="round" stroke-linejoin="round"/>
<g id="SVGRepo_iconCarrier">
<defs>
<style>.a{fill:none;stroke:#0c000;stroke-linecap:round;stroke-linejoin:round;}.b{fill:#0c000;}</style>
</defs>
<path class="a" d="M40.5,42.5H7.5a2.0059,2.0059,0,0,1-2-2V7.5a2.0059,2.0059,0,0,1,2-2h33a2.0059,2.0059,0,0,1,2,2v33A2.0059,2.0059,0,0,1,40.5,42.5Z"/>
<rect class="a" x="32.2026" y="20.442" width="5.7974" height="7.6815" rx="2.8987"/>
<path class="a" d="M10,23.3406a2.8986,2.8986,0,0,1,2.8987-2.8986h0"/>
<line class="a" x1="10" y1="20.442" x2="10" y2="28.1235"/>
<circle class="b" cx="29.2885" cy="16.8911" r="0.75"/>
<line class="a" x1="29.2885" y1="20.442" x2="29.2885" y2="28.1235"/>
<line class="a" x1="24.9868" y1="18.0506" x2="24.9868" y2="28.1235"/>
<line class="a" x1="23.465" y1="20.442" x2="26.5086" y2="20.442"/>
<path class="a" d="M20.6388,25.2248A2.8987,2.8987,0,0,1,17.74,28.1235h0a2.8987,2.8987,0,0,1-2.8987-2.8987V23.3406A2.8986,2.8986,0,0,1,17.74,20.442h0a2.8986,2.8986,0,0,1,2.8987,2.8986"/>
<line class="a" x1="20.6388" y1="28.1235" x2="20.6388" y2="20.442"/>
</g>
</svg>